<svg version="1.1" id="Layer_1" xmlns="http://www.w3.org/2000/svg" xmlns:xlink="http://www.w3.org/1999/xlink" x="0px" y="0px"
	 width="100%" viewBox="0 0 2160 2160" enable-background="new 0 0 2160 2160" xml:space="preserve">
<path fill="#FFFFFF" opacity="1.000000" stroke="none" 
	d="
M2162.000000,240.000000 
	C2162.000000,800.725403 2162.000000,1361.450806 2161.087402,1923.236572 
	C2156.175537,1924.305908 2152.176758,1924.322998 2148.177734,1924.322998 
	C1443.353027,1924.324097 738.528381,1924.325684 33.703705,1924.310669 
	C23.135801,1924.310425 12.567903,1924.108032 2.000000,1924.000000 
	C2.000000,1363.274658 2.000000,802.549194 2.752116,241.591690 
	C8.122749,241.017426 12.741247,240.375809 17.359785,240.375519 
	C727.915649,240.331192 1438.471436,240.333725 2149.027344,240.319382 
	C2153.351562,240.319290 2157.675781,240.111038 2162.000000,240.000000 
M1038.363403,1350.451538 
	C1040.223633,1350.049316 1042.083862,1349.647095 1045.880249,1348.826172 
	C1041.567627,1348.826172 1039.193115,1348.826172 1036.786865,1348.826172 
	C1036.786865,1354.080688 1036.786865,1358.832153 1036.786865,1363.583618 
	C1037.121582,1363.576904 1037.456299,1363.570068 1037.791016,1363.563232 
	C1037.791016,1359.680054 1037.791016,1355.796753 1038.363403,1350.451538 
z"/>
<path fill="#000000" opacity="1.000000" stroke="none" 
	d="
M2162.000000,239.074722 
	C2157.675781,240.111038 2153.351562,240.319290 2149.027344,240.319382 
	C1438.471436,240.333725 727.915649,240.331192 17.359785,240.375519 
	C12.741247,240.375809 8.122749,241.017426 2.752116,240.679779 
	C2.000000,160.692276 2.000000,81.384552 2.000000,2.112779 
	C722.000000,2.112779 1442.000000,2.112779 2162.000000,2.112779 
	C2162.000000,80.866852 2162.000000,159.508148 2162.000000,239.074722 
z"/>
<path fill="#010101" opacity="1.000000" stroke="none" 
	d="
M2.000000,1924.922363 
	C12.567903,1924.108032 23.135801,1924.310425 33.703705,1924.310669 
	C738.528381,1924.325684 1443.353027,1924.324097 2148.177734,1924.322998 
	C2152.176758,1924.322998 2156.175537,1924.305908 2161.087402,1924.148438 
	C2162.000000,2003.307861 2162.000000,2082.615723 2162.000000,2161.884766 
	C1442.000000,2161.884766 722.000000,2161.884766 2.000000,2161.884766 
	C2.000000,2083.127930 2.000000,2004.486450 2.000000,1924.922363 
z"/>
<path fill="#555555" opacity="1.000000" stroke="none" 
	d="
M1038.077148,1351.182617 
	C1037.791016,1355.796753 1037.791016,1359.680054 1037.791016,1363.563232 
	C1037.456299,1363.570068 1037.121582,1363.576904 1036.786865,1363.583618 
	C1036.786865,1358.832153 1036.786865,1354.080688 1036.786865,1348.826172 
	C1039.193115,1348.826172 1041.567627,1348.826172 1045.880249,1348.826172 
	C1042.083862,1349.647095 1040.223633,1350.049316 1038.077148,1351.182617 
z"/>
</svg>