<svg version="1.1" id="Layer_1" xmlns="http://www.w3.org/2000/svg" xmlns:xlink="http://www.w3.org/1999/xlink" x="0px" y="0px"
	 width="100%" viewBox="0 0 2160 2160" enable-background="new 0 0 2160 2160" xml:space="preserve">
<path fill="#FFFFFF" opacity="1.000000" stroke="none" 
	d="
M2162.000000,150.000000 
	C2162.000000,768.725403 2162.000000,1387.450806 2161.087402,2007.237305 
	C2159.175293,2008.307617 2158.175537,2008.324585 2157.176025,2008.324585 
	C1441.774780,2008.325928 726.373474,2008.326904 10.972233,2008.313354 
	C7.981487,2008.313232 4.990744,2008.108887 2.000000,2008.000000 
	C2.000000,1389.274658 2.000000,770.549194 2.912072,151.064209 
	C4.823665,150.313950 5.823186,150.331421 6.822707,150.331421 
	C722.224731,150.332901 1437.626831,150.333633 2153.028809,150.319794 
	C2156.019287,150.319733 2159.009521,150.111176 2162.000000,150.000000 
M782.669800,592.649109 
	C781.915283,593.694885 781.160828,594.740662 780.406311,595.786438 
	C781.141724,596.221497 781.877075,596.656616 782.612488,597.091675 
	C782.923828,595.933228 783.235168,594.774780 782.669800,592.649109 
M783.510681,1030.189697 
	C783.231934,1029.019775 782.953186,1027.849976 782.674500,1026.680054 
	C781.921326,1027.089844 781.168091,1027.499634 780.414856,1027.909302 
	C781.148926,1028.982178 781.882996,1030.054932 783.510681,1030.189697 
M1181.774780,1420.893311 
	C1180.969116,1420.151367 1180.163452,1419.409424 1179.357788,1418.667480 
	C1179.064941,1419.829468 1178.771973,1420.991333 1178.479126,1422.153320 
	C1179.495972,1422.156616 1180.512939,1422.159912 1181.774780,1420.893311 
M783.530396,1614.432007 
	C783.239197,1613.264160 782.947998,1612.096313 782.656738,1610.928345 
	C781.910950,1611.348145 781.165161,1611.767822 780.419434,1612.187622 
	C781.155029,1613.251953 781.890564,1614.316406 783.530396,1614.432007 
z"/>
<path fill="#000000" opacity="1.000000" stroke="none" 
	d="
M2.000000,2008.922485 
	C4.990744,2008.108887 7.981487,2008.313232 10.972233,2008.313354 
	C726.373474,2008.326904 1441.774780,2008.325928 2157.176025,2008.324585 
	C2158.175537,2008.324585 2159.175293,2008.307617 2161.087402,2008.149170 
	C2162.000000,2059.315674 2162.000000,2110.631592 2162.000000,2161.896484 
	C1442.000000,2161.896484 722.000000,2161.896484 2.000000,2161.896484 
	C2.000000,2111.143555 2.000000,2060.494141 2.000000,2008.922485 
z"/>
<path fill="#000000" opacity="1.000000" stroke="none" 
	d="
M2162.000000,149.077484 
	C2159.009521,150.111176 2156.019287,150.319733 2153.028809,150.319794 
	C1437.626831,150.333633 722.224731,150.332901 6.822707,150.331421 
	C5.823186,150.331421 4.823665,150.313950 2.912072,150.152313 
	C2.000000,100.683647 2.000000,51.367290 2.000000,2.102670 
	C722.000000,2.102670 1442.000000,2.102670 2162.000000,2.102670 
	C2162.000000,50.855221 2162.000000,99.505104 2162.000000,149.077484 
z"/>
<path fill="#BFBFBF" opacity="1.000000" stroke="none" 
	d="
M783.108154,593.132690 
	C783.235168,594.774780 782.923828,595.933228 782.612488,597.091675 
	C781.877075,596.656616 781.141724,596.221497 780.406311,595.786438 
	C781.160828,594.740662 781.915283,593.694885 783.108154,593.132690 
z"/>
<path fill="#BFBFBF" opacity="1.000000" stroke="none" 
	d="
M783.063843,1030.658691 
	C781.882996,1030.054932 781.148926,1028.982178 780.414856,1027.909302 
	C781.168091,1027.499634 781.921326,1027.089844 782.674438,1026.680054 
	C782.953186,1027.849976 783.231934,1029.019775 783.063843,1030.658691 
z"/>
<path fill="#BFBFBF" opacity="1.000000" stroke="none" 
	d="
M1181.652344,1421.528320 
	C1180.512939,1422.159912 1179.495972,1422.156616 1178.479126,1422.153320 
	C1178.771973,1420.991333 1179.064941,1419.829468 1179.357788,1418.667480 
	C1180.163452,1419.409424 1180.969116,1420.151367 1181.652344,1421.528320 
z"/>
<path fill="#BFBFBF" opacity="1.000000" stroke="none" 
	d="
M783.078247,1614.906372 
	C781.890564,1614.316406 781.155029,1613.251953 780.419434,1612.187500 
	C781.165161,1611.767822 781.910950,1611.348145 782.656738,1610.928467 
	C782.947998,1612.096313 783.239197,1613.264160 783.078247,1614.906372 
z"/>
</svg>